solid OpenSCAD_Model
  facet normal -0.844325 0.535832 0
    outer loop
      vertex -2.10752 1.15862 0
      vertex -1.94569 1.41362 1.4
      vertex -1.94569 1.41362 0
    endloop
  endfacet
  facet normal -0.844325 0.535832 0
    outer loop
      vertex -1.94569 1.41362 1.4
      vertex -2.10752 1.15862 0
      vertex -2.10752 1.15862 1.4
    endloop
  endfacet
  facet normal 0.982289 0.18737 0
    outer loop
      vertex 2.38603 0.301426 1.4
      vertex 2.32944 0.598099 0
      vertex 2.32944 0.598099 1.4
    endloop
  endfacet
  facet normal 0.982289 0.18737 0
    outer loop
      vertex 2.32944 0.598099 0
      vertex 2.38603 0.301426 1.4
      vertex 2.38603 0.301426 0
    endloop
  endfacet
  facet normal 0.998026 0.0628099 0
    outer loop
      vertex 2.405 0 1.4
      vertex 2.38603 0.301426 0
      vertex 2.38603 0.301426 1.4
    endloop
  endfacet
  facet normal 0.998026 0.0628099 0
    outer loop
      vertex 2.38603 0.301426 0
      vertex 2.405 0 1.4
      vertex 2.405 0 0
    endloop
  endfacet
  facet normal 0.844325 0.535832 0
    outer loop
      vertex 2.10752 1.15862 1.4
      vertex 1.94569 1.41362 0
      vertex 1.94569 1.41362 1.4
    endloop
  endfacet
  facet normal 0.844325 0.535832 0
    outer loop
      vertex 1.94569 1.41362 0
      vertex 2.10752 1.15862 1.4
      vertex 2.10752 1.15862 0
    endloop
  endfacet
  facet normal 0.684524 0.728991 -0
    outer loop
      vertex 1.75317 1.64634 0
      vertex 1.533 1.85308 1.4
      vertex 1.75317 1.64634 1.4
    endloop
  endfacet
  facet normal 0.684524 0.728991 0
    outer loop
      vertex 1.533 1.85308 1.4
      vertex 1.75317 1.64634 0
      vertex 1.533 1.85308 0
    endloop
  endfacet
  facet normal -0.24869 0.968583 0
    outer loop
      vertex -0.450651 2.3624 0
      vertex -0.743185 2.28729 1.4
      vertex -0.450651 2.3624 1.4
    endloop
  endfacet
  facet normal -0.24869 0.968583 0
    outer loop
      vertex -0.743185 2.28729 1.4
      vertex -0.450651 2.3624 0
      vertex -0.743185 2.28729 0
    endloop
  endfacet
  facet normal -0.5878 0.809007 0
    outer loop
      vertex -1.28866 2.03061 0
      vertex -1.533 1.85308 1.4
      vertex -1.28866 2.03061 1.4
    endloop
  endfacet
  facet normal -0.5878 0.809007 0
    outer loop
      vertex -1.533 1.85308 1.4
      vertex -1.28866 2.03061 0
      vertex -1.533 1.85308 0
    endloop
  endfacet
  facet normal 0.904835 -0.425762 0
    outer loop
      vertex 2.10752 -1.15862 1.4
      vertex 2.23611 -0.885339 0
      vertex 2.23611 -0.885339 1.4
    endloop
  endfacet
  facet normal 0.904835 -0.425762 0
    outer loop
      vertex 2.23611 -0.885339 0
      vertex 2.10752 -1.15862 1.4
      vertex 2.10752 -1.15862 0
    endloop
  endfacet
  facet normal 0.481759 0.876304 -0
    outer loop
      vertex 1.28866 2.03061 0
      vertex 1.024 2.17611 1.4
      vertex 1.28866 2.03061 1.4
    endloop
  endfacet
  facet normal 0.481759 0.876304 0
    outer loop
      vertex 1.024 2.17611 1.4
      vertex 1.28866 2.03061 0
      vertex 1.024 2.17611 0
    endloop
  endfacet
  facet normal 0.24869 -0.968583 0
    outer loop
      vertex 0.450651 -2.3624 0
      vertex 0.743185 -2.28729 1.4
      vertex 0.450651 -2.3624 1.4
    endloop
  endfacet
  facet normal 0.24869 -0.968583 0
    outer loop
      vertex 0.743185 -2.28729 1.4
      vertex 0.450651 -2.3624 0
      vertex 0.743185 -2.28729 0
    endloop
  endfacet
  facet normal -0.951056 0.309017 0
    outer loop
      vertex -2.32944 0.598099 0
      vertex -2.23611 0.885339 1.4
      vertex -2.23611 0.885339 0
    endloop
  endfacet
  facet normal -0.951056 0.309017 0
    outer loop
      vertex -2.23611 0.885339 1.4
      vertex -2.32944 0.598099 0
      vertex -2.32944 0.598099 1.4
    endloop
  endfacet
  facet normal -0.770518 0.637419 0
    outer loop
      vertex -1.94569 1.41362 0
      vertex -1.75317 1.64634 1.4
      vertex -1.75317 1.64634 0
    endloop
  endfacet
  facet normal -0.770518 0.637419 0
    outer loop
      vertex -1.75317 1.64634 1.4
      vertex -1.94569 1.41362 0
      vertex -1.94569 1.41362 1.4
    endloop
  endfacet
  facet normal -0.998026 0.0628099 0
    outer loop
      vertex -2.405 0 0
      vertex -2.38603 0.301426 1.4
      vertex -2.38603 0.301426 0
    endloop
  endfacet
  facet normal -0.998026 0.0628099 0
    outer loop
      vertex -2.38603 0.301426 1.4
      vertex -2.405 0 0
      vertex -2.405 0 1.4
    endloop
  endfacet
  facet normal -0.481759 0.876304 0
    outer loop
      vertex -1.024 2.17611 0
      vertex -1.28866 2.03061 1.4
      vertex -1.024 2.17611 1.4
    endloop
  endfacet
  facet normal -0.481759 0.876304 0
    outer loop
      vertex -1.28866 2.03061 1.4
      vertex -1.024 2.17611 0
      vertex -1.28866 2.03061 0
    endloop
  endfacet
  facet normal -0.904835 0.425762 0
    outer loop
      vertex -2.23611 0.885339 0
      vertex -2.10752 1.15862 1.4
      vertex -2.10752 1.15862 0
    endloop
  endfacet
  facet normal -0.904835 0.425762 0
    outer loop
      vertex -2.10752 1.15862 1.4
      vertex -2.23611 0.885339 0
      vertex -2.23611 0.885339 1.4
    endloop
  endfacet
  facet normal 0 0 -1
    outer loop
      vertex 2.38603 -0.301426 0
      vertex 2.38603 0.301426 0
      vertex 2.405 0 0
    endloop
  endfacet
  facet normal 0 0 -1
    outer loop
      vertex 2.32944 -0.598099 0
      vertex 2.38603 0.301426 0
      vertex 2.38603 -0.301426 0
    endloop
  endfacet
  facet normal 0 0 -1
    outer loop
      vertex 2.32944 -0.598099 0
      vertex 2.32944 0.598099 0
      vertex 2.38603 0.301426 0
    endloop
  endfacet
  facet normal 0 0 -1
    outer loop
      vertex 2.23611 -0.885339 0
      vertex 2.32944 0.598099 0
      vertex 2.32944 -0.598099 0
    endloop
  endfacet
  facet normal 0 0 -1
    outer loop
      vertex 2.23611 -0.885339 0
      vertex 2.23611 0.885339 0
      vertex 2.32944 0.598099 0
    endloop
  endfacet
  facet normal 0 0 -1
    outer loop
      vertex 2.10752 -1.15862 0
      vertex 2.23611 0.885339 0
      vertex 2.23611 -0.885339 0
    endloop
  endfacet
  facet normal 0 0 -1
    outer loop
      vertex 2.10752 -1.15862 0
      vertex 2.10752 1.15862 0
      vertex 2.23611 0.885339 0
    endloop
  endfacet
  facet normal 0 0 -1
    outer loop
      vertex 1.94569 -1.41362 0
      vertex 2.10752 1.15862 0
      vertex 2.10752 -1.15862 0
    endloop
  endfacet
  facet normal 0 0 -1
    outer loop
      vertex 1.94569 -1.41362 0
      vertex 1.94569 1.41362 0
      vertex 2.10752 1.15862 0
    endloop
  endfacet
  facet normal 0 0 -1
    outer loop
      vertex 1.75317 -1.64634 0
      vertex 1.94569 1.41362 0
      vertex 1.94569 -1.41362 0
    endloop
  endfacet
  facet normal 0 0 -1
    outer loop
      vertex 1.75317 -1.64634 0
      vertex 1.75317 1.64634 0
      vertex 1.94569 1.41362 0
    endloop
  endfacet
  facet normal 0 0 -1
    outer loop
      vertex 1.533 -1.85308 0
      vertex 1.75317 1.64634 0
      vertex 1.75317 -1.64634 0
    endloop
  endfacet
  facet normal 0 0 -1
    outer loop
      vertex 1.533 -1.85308 0
      vertex 1.533 1.85308 0
      vertex 1.75317 1.64634 0
    endloop
  endfacet
  facet normal 0 0 -1
    outer loop
      vertex 1.28866 -2.03061 0
      vertex 1.533 1.85308 0
      vertex 1.533 -1.85308 0
    endloop
  endfacet
  facet normal 0 0 -1
    outer loop
      vertex 1.28866 -2.03061 0
      vertex 1.28866 2.03061 0
      vertex 1.533 1.85308 0
    endloop
  endfacet
  facet normal 0 0 -1
    outer loop
      vertex 1.024 -2.17611 0
      vertex 1.28866 2.03061 0
      vertex 1.28866 -2.03061 0
    endloop
  endfacet
  facet normal 0 0 -1
    outer loop
      vertex 1.024 -2.17611 0
      vertex 1.024 2.17611 0
      vertex 1.28866 2.03061 0
    endloop
  endfacet
  facet normal 0 0 -1
    outer loop
      vertex 0.743185 -2.28729 0
      vertex 1.024 2.17611 0
      vertex 1.024 -2.17611 0
    endloop
  endfacet
  facet normal 0 0 -1
    outer loop
      vertex 0.743185 -2.28729 0
      vertex 0.743185 2.28729 0
      vertex 1.024 2.17611 0
    endloop
  endfacet
  facet normal 0 0 -1
    outer loop
      vertex 0.450651 -2.3624 0
      vertex 0.743185 2.28729 0
      vertex 0.743185 -2.28729 0
    endloop
  endfacet
  facet normal 0 0 -1
    outer loop
      vertex 0.450651 -2.3624 0
      vertex 0.450651 2.3624 0
      vertex 0.743185 2.28729 0
    endloop
  endfacet
  facet normal 0 0 -1
    outer loop
      vertex 0.151011 -2.40025 0
      vertex 0.450651 2.3624 0
      vertex 0.450651 -2.3624 0
    endloop
  endfacet
  facet normal 0 0 -1
    outer loop
      vertex 0.151011 -2.40025 0
      vertex 0.151011 2.40025 0
      vertex 0.450651 2.3624 0
    endloop
  endfacet
  facet normal 0 0 -1
    outer loop
      vertex -0.151011 -2.40025 0
      vertex 0.151011 2.40025 0
      vertex 0.151011 -2.40025 0
    endloop
  endfacet
  facet normal 0 0 -1
    outer loop
      vertex -0.151011 -2.40025 0
      vertex -0.151011 2.40025 0
      vertex 0.151011 2.40025 0
    endloop
  endfacet
  facet normal 0 0 -1
    outer loop
      vertex -0.450651 -2.3624 0
      vertex -0.151011 2.40025 0
      vertex -0.151011 -2.40025 0
    endloop
  endfacet
  facet normal 0 0 -1
    outer loop
      vertex -0.450651 -2.3624 0
      vertex -0.450651 2.3624 0
      vertex -0.151011 2.40025 0
    endloop
  endfacet
  facet normal 0 0 -1
    outer loop
      vertex -0.743185 -2.28729 0
      vertex -0.450651 2.3624 0
      vertex -0.450651 -2.3624 0
    endloop
  endfacet
  facet normal 0 0 -1
    outer loop
      vertex -0.743185 -2.28729 0
      vertex -0.743185 2.28729 0
      vertex -0.450651 2.3624 0
    endloop
  endfacet
  facet normal 0 0 -1
    outer loop
      vertex -1.024 -2.17611 0
      vertex -0.743185 2.28729 0
      vertex -0.743185 -2.28729 0
    endloop
  endfacet
  facet normal 0 0 -1
    outer loop
      vertex -1.024 -2.17611 0
      vertex -1.024 2.17611 0
      vertex -0.743185 2.28729 0
    endloop
  endfacet
  facet normal 0 0 -1
    outer loop
      vertex -1.28866 -2.03061 0
      vertex -1.024 2.17611 0
      vertex -1.024 -2.17611 0
    endloop
  endfacet
  facet normal 0 0 -1
    outer loop
      vertex -1.28866 -2.03061 0
      vertex -1.28866 2.03061 0
      vertex -1.024 2.17611 0
    endloop
  endfacet
  facet normal 0 0 -1
    outer loop
      vertex -1.533 -1.85308 0
      vertex -1.28866 2.03061 0
      vertex -1.28866 -2.03061 0
    endloop
  endfacet
  facet normal 0 0 -1
    outer loop
      vertex -1.533 -1.85308 0
      vertex -1.533 1.85308 0
      vertex -1.28866 2.03061 0
    endloop
  endfacet
  facet normal 0 0 -1
    outer loop
      vertex -1.75317 -1.64634 0
      vertex -1.533 1.85308 0
      vertex -1.533 -1.85308 0
    endloop
  endfacet
  facet normal 0 0 -1
    outer loop
      vertex -1.75317 -1.64634 0
      vertex -1.75317 1.64634 0
      vertex -1.533 1.85308 0
    endloop
  endfacet
  facet normal 0 0 -1
    outer loop
      vertex -1.94569 -1.41362 0
      vertex -1.75317 1.64634 0
      vertex -1.75317 -1.64634 0
    endloop
  endfacet
  facet normal 0 0 -1
    outer loop
      vertex -1.94569 -1.41362 0
      vertex -1.94569 1.41362 0
      vertex -1.75317 1.64634 0
    endloop
  endfacet
  facet normal 0 0 -1
    outer loop
      vertex -2.10752 -1.15862 0
      vertex -1.94569 1.41362 0
      vertex -1.94569 -1.41362 0
    endloop
  endfacet
  facet normal 0 0 -1
    outer loop
      vertex -2.10752 -1.15862 0
      vertex -2.10752 1.15862 0
      vertex -1.94569 1.41362 0
    endloop
  endfacet
  facet normal 0 0 -1
    outer loop
      vertex -2.23611 -0.885339 0
      vertex -2.10752 1.15862 0
      vertex -2.10752 -1.15862 0
    endloop
  endfacet
  facet normal 0 0 -1
    outer loop
      vertex -2.23611 -0.885339 0
      vertex -2.23611 0.885339 0
      vertex -2.10752 1.15862 0
    endloop
  endfacet
  facet normal 0 0 -1
    outer loop
      vertex -2.32944 -0.598099 0
      vertex -2.23611 0.885339 0
      vertex -2.23611 -0.885339 0
    endloop
  endfacet
  facet normal 0 0 -1
    outer loop
      vertex -2.32944 -0.598099 0
      vertex -2.32944 0.598099 0
      vertex -2.23611 0.885339 0
    endloop
  endfacet
  facet normal 0 0 -1
    outer loop
      vertex -2.38603 -0.301426 0
      vertex -2.32944 0.598099 0
      vertex -2.32944 -0.598099 0
    endloop
  endfacet
  facet normal 0 0 -1
    outer loop
      vertex -2.38603 -0.301426 0
      vertex -2.38603 0.301426 0
      vertex -2.32944 0.598099 0
    endloop
  endfacet
  facet normal 0 -0 -1
    outer loop
      vertex -2.38603 0.301426 0
      vertex -2.38603 -0.301426 0
      vertex -2.405 0 0
    endloop
  endfacet
  facet normal 0 1 -0
    outer loop
      vertex 0.151011 2.40025 0
      vertex -0.151011 2.40025 1.4
      vertex 0.151011 2.40025 1.4
    endloop
  endfacet
  facet normal 0 1 0
    outer loop
      vertex -0.151011 2.40025 1.4
      vertex 0.151011 2.40025 0
      vertex -0.151011 2.40025 0
    endloop
  endfacet
  facet normal 0.844325 -0.535832 0
    outer loop
      vertex 1.94569 -1.41362 1.4
      vertex 2.10752 -1.15862 0
      vertex 2.10752 -1.15862 1.4
    endloop
  endfacet
  facet normal 0.844325 -0.535832 0
    outer loop
      vertex 2.10752 -1.15862 0
      vertex 1.94569 -1.41362 1.4
      vertex 1.94569 -1.41362 0
    endloop
  endfacet
  facet normal 0.684524 -0.728991 0
    outer loop
      vertex 1.533 -1.85308 0
      vertex 1.75317 -1.64634 1.4
      vertex 1.533 -1.85308 1.4
    endloop
  endfacet
  facet normal 0.684524 -0.728991 0
    outer loop
      vertex 1.75317 -1.64634 1.4
      vertex 1.533 -1.85308 0
      vertex 1.75317 -1.64634 0
    endloop
  endfacet
  facet normal -0.904835 -0.425762 0
    outer loop
      vertex -2.10752 -1.15862 0
      vertex -2.23611 -0.885339 1.4
      vertex -2.23611 -0.885339 0
    endloop
  endfacet
  facet normal -0.904835 -0.425762 0
    outer loop
      vertex -2.23611 -0.885339 1.4
      vertex -2.10752 -1.15862 0
      vertex -2.10752 -1.15862 1.4
    endloop
  endfacet
  facet normal -0.125322 -0.992116 0
    outer loop
      vertex -0.450651 -2.3624 0
      vertex -0.151011 -2.40025 1.4
      vertex -0.450651 -2.3624 1.4
    endloop
  endfacet
  facet normal -0.125322 -0.992116 -0
    outer loop
      vertex -0.151011 -2.40025 1.4
      vertex -0.450651 -2.3624 0
      vertex -0.151011 -2.40025 0
    endloop
  endfacet
  facet normal 0.125322 -0.992116 0
    outer loop
      vertex 0.151011 -2.40025 0
      vertex 0.450651 -2.3624 1.4
      vertex 0.151011 -2.40025 1.4
    endloop
  endfacet
  facet normal 0.125322 -0.992116 0
    outer loop
      vertex 0.450651 -2.3624 1.4
      vertex 0.151011 -2.40025 0
      vertex 0.450651 -2.3624 0
    endloop
  endfacet
  facet normal -0.684524 0.728991 0
    outer loop
      vertex -1.533 1.85308 0
      vertex -1.75317 1.64634 1.4
      vertex -1.533 1.85308 1.4
    endloop
  endfacet
  facet normal -0.684524 0.728991 0
    outer loop
      vertex -1.75317 1.64634 1.4
      vertex -1.533 1.85308 0
      vertex -1.75317 1.64634 0
    endloop
  endfacet
  facet normal 0.904835 0.425762 0
    outer loop
      vertex 2.23611 0.885339 1.4
      vertex 2.10752 1.15862 0
      vertex 2.10752 1.15862 1.4
    endloop
  endfacet
  facet normal 0.904835 0.425762 0
    outer loop
      vertex 2.10752 1.15862 0
      vertex 2.23611 0.885339 1.4
      vertex 2.23611 0.885339 0
    endloop
  endfacet
  facet normal -0.770518 -0.637419 0
    outer loop
      vertex -1.75317 -1.64634 0
      vertex -1.94569 -1.41362 1.4
      vertex -1.94569 -1.41362 0
    endloop
  endfacet
  facet normal -0.770518 -0.637419 0
    outer loop
      vertex -1.94569 -1.41362 1.4
      vertex -1.75317 -1.64634 0
      vertex -1.75317 -1.64634 1.4
    endloop
  endfacet
  facet normal 0.5878 0.809007 -0
    outer loop
      vertex 1.533 1.85308 0
      vertex 1.28866 2.03061 1.4
      vertex 1.533 1.85308 1.4
    endloop
  endfacet
  facet normal 0.5878 0.809007 0
    outer loop
      vertex 1.28866 2.03061 1.4
      vertex 1.533 1.85308 0
      vertex 1.28866 2.03061 0
    endloop
  endfacet
  facet normal 0.481759 -0.876304 0
    outer loop
      vertex 1.024 -2.17611 0
      vertex 1.28866 -2.03061 1.4
      vertex 1.024 -2.17611 1.4
    endloop
  endfacet
  facet normal 0.481759 -0.876304 0
    outer loop
      vertex 1.28866 -2.03061 1.4
      vertex 1.024 -2.17611 0
      vertex 1.28866 -2.03061 0
    endloop
  endfacet
  facet normal -0.684524 -0.728991 0
    outer loop
      vertex -1.75317 -1.64634 0
      vertex -1.533 -1.85308 1.4
      vertex -1.75317 -1.64634 1.4
    endloop
  endfacet
  facet normal -0.684524 -0.728991 -0
    outer loop
      vertex -1.533 -1.85308 1.4
      vertex -1.75317 -1.64634 0
      vertex -1.533 -1.85308 0
    endloop
  endfacet
  facet normal -0.368117 0.929779 0
    outer loop
      vertex -0.743185 2.28729 0
      vertex -1.024 2.17611 1.4
      vertex -0.743185 2.28729 1.4
    endloop
  endfacet
  facet normal -0.368117 0.929779 0
    outer loop
      vertex -1.024 2.17611 1.4
      vertex -0.743185 2.28729 0
      vertex -1.024 2.17611 0
    endloop
  endfacet
  facet normal -0.998026 -0.0628099 0
    outer loop
      vertex -2.38603 -0.301426 0
      vertex -2.405 0 1.4
      vertex -2.405 0 0
    endloop
  endfacet
  facet normal -0.998026 -0.0628099 0
    outer loop
      vertex -2.405 0 1.4
      vertex -2.38603 -0.301426 0
      vertex -2.38603 -0.301426 1.4
    endloop
  endfacet
  facet normal 0.982289 -0.18737 0
    outer loop
      vertex 2.32944 -0.598099 1.4
      vertex 2.38603 -0.301426 0
      vertex 2.38603 -0.301426 1.4
    endloop
  endfacet
  facet normal 0.982289 -0.18737 0
    outer loop
      vertex 2.38603 -0.301426 0
      vertex 2.32944 -0.598099 1.4
      vertex 2.32944 -0.598099 0
    endloop
  endfacet
  facet normal 0.998026 -0.0628099 0
    outer loop
      vertex 2.38603 -0.301426 1.4
      vertex 2.405 0 0
      vertex 2.405 0 1.4
    endloop
  endfacet
  facet normal 0.998026 -0.0628099 0
    outer loop
      vertex 2.405 0 0
      vertex 2.38603 -0.301426 1.4
      vertex 2.38603 -0.301426 0
    endloop
  endfacet
  facet normal 0 0 1
    outer loop
      vertex 1.965 0 1.4
      vertex 2.405 0 1.4
      vertex 2.38603 0.301426 1.4
    endloop
  endfacet
  facet normal 0 0 1
    outer loop
      vertex 1.9495 0.24628 1.4
      vertex 2.38603 0.301426 1.4
      vertex 2.32944 0.598099 1.4
    endloop
  endfacet
  facet normal 0 0 1
    outer loop
      vertex 2.405 0 1.4
      vertex 1.965 0 1.4
      vertex 2.38603 -0.301426 1.4
    endloop
  endfacet
  facet normal 0 0 1
    outer loop
      vertex 1.90326 0.488675 1.4
      vertex 2.32944 0.598099 1.4
      vertex 2.23611 0.885339 1.4
    endloop
  endfacet
  facet normal -0 0 1
    outer loop
      vertex 1.9495 -0.24628 1.4
      vertex 2.38603 -0.301426 1.4
      vertex 1.965 0 1.4
    endloop
  endfacet
  facet normal 0 0 1
    outer loop
      vertex 1.82701 0.723364 1.4
      vertex 2.23611 0.885339 1.4
      vertex 2.10752 1.15862 1.4
    endloop
  endfacet
  facet normal 0 0 1
    outer loop
      vertex 2.38603 -0.301426 1.4
      vertex 1.9495 -0.24628 1.4
      vertex 2.32944 -0.598099 1.4
    endloop
  endfacet
  facet normal -0 0 1
    outer loop
      vertex 1.90326 -0.488675 1.4
      vertex 2.32944 -0.598099 1.4
      vertex 1.9495 -0.24628 1.4
    endloop
  endfacet
  facet normal 0 0 1
    outer loop
      vertex 2.38603 0.301426 1.4
      vertex 1.9495 0.24628 1.4
      vertex 1.965 0 1.4
    endloop
  endfacet
  facet normal 0 0 1
    outer loop
      vertex 1.72194 0.946646 1.4
      vertex 2.10752 1.15862 1.4
      vertex 1.94569 1.41362 1.4
    endloop
  endfacet
  facet normal 0 0 1
    outer loop
      vertex 2.32944 0.598099 1.4
      vertex 1.90326 0.488675 1.4
      vertex 1.9495 0.24628 1.4
    endloop
  endfacet
  facet normal 0 0 1
    outer loop
      vertex 2.23611 0.885339 1.4
      vertex 1.82701 0.723364 1.4
      vertex 1.90326 0.488675 1.4
    endloop
  endfacet
  facet normal 0 0 1
    outer loop
      vertex 1.58972 1.155 1.4
      vertex 1.94569 1.41362 1.4
      vertex 1.75317 1.64634 1.4
    endloop
  endfacet
  facet normal 0 0 1
    outer loop
      vertex 2.10752 1.15862 1.4
      vertex 1.72194 0.946646 1.4
      vertex 1.82701 0.723364 1.4
    endloop
  endfacet
  facet normal 0 0 1
    outer loop
      vertex 1.94569 1.41362 1.4
      vertex 1.58972 1.155 1.4
      vertex 1.72194 0.946646 1.4
    endloop
  endfacet
  facet normal 0 0 1
    outer loop
      vertex 1.43242 1.34513 1.4
      vertex 1.75317 1.64634 1.4
      vertex 1.533 1.85308 1.4
    endloop
  endfacet
  facet normal 0 0 1
    outer loop
      vertex 1.75317 1.64634 1.4
      vertex 1.43242 1.34513 1.4
      vertex 1.58972 1.155 1.4
    endloop
  endfacet
  facet normal 0 0 1
    outer loop
      vertex 1.25254 1.51406 1.4
      vertex 1.533 1.85308 1.4
      vertex 1.28866 2.03061 1.4
    endloop
  endfacet
  facet normal 0 0 1
    outer loop
      vertex 1.533 1.85308 1.4
      vertex 1.25254 1.51406 1.4
      vertex 1.43242 1.34513 1.4
    endloop
  endfacet
  facet normal 0 0 1
    outer loop
      vertex 1.28866 2.03061 1.4
      vertex 1.0529 1.6591 1.4
      vertex 1.25254 1.51406 1.4
    endloop
  endfacet
  facet normal 0 0 1
    outer loop
      vertex 1.024 2.17611 1.4
      vertex 1.0529 1.6591 1.4
      vertex 1.28866 2.03061 1.4
    endloop
  endfacet
  facet normal 0 0 1
    outer loop
      vertex 1.024 2.17611 1.4
      vertex 0.836656 1.77798 1.4
      vertex 1.0529 1.6591 1.4
    endloop
  endfacet
  facet normal 0 0 1
    outer loop
      vertex 0.743185 2.28729 1.4
      vertex 0.836656 1.77798 1.4
      vertex 1.024 2.17611 1.4
    endloop
  endfacet
  facet normal 0 0 1
    outer loop
      vertex 0.743185 2.28729 1.4
      vertex 0.607218 1.86883 1.4
      vertex 0.836656 1.77798 1.4
    endloop
  endfacet
  facet normal 0 0 1
    outer loop
      vertex 0.450651 2.3624 1.4
      vertex 0.607218 1.86883 1.4
      vertex 0.743185 2.28729 1.4
    endloop
  endfacet
  facet normal 0 0 1
    outer loop
      vertex 0.450651 2.3624 1.4
      vertex 0.368204 1.93019 1.4
      vertex 0.607218 1.86883 1.4
    endloop
  endfacet
  facet normal 0 0 1
    outer loop
      vertex 0.151011 2.40025 1.4
      vertex 0.368204 1.93019 1.4
      vertex 0.450651 2.3624 1.4
    endloop
  endfacet
  facet normal 0 0 1
    outer loop
      vertex 0.151011 2.40025 1.4
      vertex 0.123383 1.96112 1.4
      vertex 0.368204 1.93019 1.4
    endloop
  endfacet
  facet normal 0 0 1
    outer loop
      vertex 0.151011 2.40025 1.4
      vertex -0.123383 1.96112 1.4
      vertex 0.123383 1.96112 1.4
    endloop
  endfacet
  facet normal -0 0 1
    outer loop
      vertex -0.151011 2.40025 1.4
      vertex -0.123383 1.96112 1.4
      vertex 0.151011 2.40025 1.4
    endloop
  endfacet
  facet normal 0 0 1
    outer loop
      vertex -0.151011 2.40025 1.4
      vertex -0.368204 1.93019 1.4
      vertex -0.123383 1.96112 1.4
    endloop
  endfacet
  facet normal -0 0 1
    outer loop
      vertex -0.450651 2.3624 1.4
      vertex -0.368204 1.93019 1.4
      vertex -0.151011 2.40025 1.4
    endloop
  endfacet
  facet normal 0 0 1
    outer loop
      vertex -0.450651 2.3624 1.4
      vertex -0.607218 1.86883 1.4
      vertex -0.368204 1.93019 1.4
    endloop
  endfacet
  facet normal -0 0 1
    outer loop
      vertex -0.743185 2.28729 1.4
      vertex -0.607218 1.86883 1.4
      vertex -0.450651 2.3624 1.4
    endloop
  endfacet
  facet normal 0 0 1
    outer loop
      vertex -0.743185 2.28729 1.4
      vertex -0.836656 1.77798 1.4
      vertex -0.607218 1.86883 1.4
    endloop
  endfacet
  facet normal -0 0 1
    outer loop
      vertex -1.024 2.17611 1.4
      vertex -0.836656 1.77798 1.4
      vertex -0.743185 2.28729 1.4
    endloop
  endfacet
  facet normal 0 0 1
    outer loop
      vertex -1.024 2.17611 1.4
      vertex -1.0529 1.6591 1.4
      vertex -0.836656 1.77798 1.4
    endloop
  endfacet
  facet normal -0 0 1
    outer loop
      vertex -1.28866 2.03061 1.4
      vertex -1.0529 1.6591 1.4
      vertex -1.024 2.17611 1.4
    endloop
  endfacet
  facet normal 0 0 1
    outer loop
      vertex -1.0529 1.6591 1.4
      vertex -1.28866 2.03061 1.4
      vertex -1.25254 1.51406 1.4
    endloop
  endfacet
  facet normal -0 0 1
    outer loop
      vertex -1.533 1.85308 1.4
      vertex -1.25254 1.51406 1.4
      vertex -1.28866 2.03061 1.4
    endloop
  endfacet
  facet normal 0 0 1
    outer loop
      vertex -1.25254 1.51406 1.4
      vertex -1.533 1.85308 1.4
      vertex -1.43242 1.34513 1.4
    endloop
  endfacet
  facet normal -0 0 1
    outer loop
      vertex -1.75317 1.64634 1.4
      vertex -1.43242 1.34513 1.4
      vertex -1.533 1.85308 1.4
    endloop
  endfacet
  facet normal 0 0 1
    outer loop
      vertex -1.43242 1.34513 1.4
      vertex -1.75317 1.64634 1.4
      vertex -1.58972 1.155 1.4
    endloop
  endfacet
  facet normal -0 0 1
    outer loop
      vertex -1.94569 1.41362 1.4
      vertex -1.58972 1.155 1.4
      vertex -1.75317 1.64634 1.4
    endloop
  endfacet
  facet normal 0 0 1
    outer loop
      vertex -1.58972 1.155 1.4
      vertex -1.94569 1.41362 1.4
      vertex -1.72194 0.946646 1.4
    endloop
  endfacet
  facet normal -0 0 1
    outer loop
      vertex -2.10752 1.15862 1.4
      vertex -1.72194 0.946646 1.4
      vertex -1.94569 1.41362 1.4
    endloop
  endfacet
  facet normal 0 0 1
    outer loop
      vertex -1.72194 0.946646 1.4
      vertex -2.10752 1.15862 1.4
      vertex -1.82701 0.723364 1.4
    endloop
  endfacet
  facet normal -0 0 1
    outer loop
      vertex -2.23611 0.885339 1.4
      vertex -1.82701 0.723364 1.4
      vertex -2.10752 1.15862 1.4
    endloop
  endfacet
  facet normal 0 0 1
    outer loop
      vertex -1.82701 0.723364 1.4
      vertex -2.23611 0.885339 1.4
      vertex -1.90326 0.488675 1.4
    endloop
  endfacet
  facet normal -0 0 1
    outer loop
      vertex -2.32944 0.598099 1.4
      vertex -1.90326 0.488675 1.4
      vertex -2.23611 0.885339 1.4
    endloop
  endfacet
  facet normal 0 0 1
    outer loop
      vertex 2.32944 -0.598099 1.4
      vertex 1.90326 -0.488675 1.4
      vertex 2.23611 -0.885339 1.4
    endloop
  endfacet
  facet normal -0 0 1
    outer loop
      vertex 1.82701 -0.723364 1.4
      vertex 2.23611 -0.885339 1.4
      vertex 1.90326 -0.488675 1.4
    endloop
  endfacet
  facet normal 0 0 1
    outer loop
      vertex 2.23611 -0.885339 1.4
      vertex 1.82701 -0.723364 1.4
      vertex 2.10752 -1.15862 1.4
    endloop
  endfacet
  facet normal -0 0 1
    outer loop
      vertex 1.72194 -0.946646 1.4
      vertex 2.10752 -1.15862 1.4
      vertex 1.82701 -0.723364 1.4
    endloop
  endfacet
  facet normal 0 0 1
    outer loop
      vertex 2.10752 -1.15862 1.4
      vertex 1.72194 -0.946646 1.4
      vertex 1.94569 -1.41362 1.4
    endloop
  endfacet
  facet normal -0 0 1
    outer loop
      vertex 1.58972 -1.155 1.4
      vertex 1.94569 -1.41362 1.4
      vertex 1.72194 -0.946646 1.4
    endloop
  endfacet
  facet normal 0 0 1
    outer loop
      vertex 1.94569 -1.41362 1.4
      vertex 1.58972 -1.155 1.4
      vertex 1.75317 -1.64634 1.4
    endloop
  endfacet
  facet normal -0 0 1
    outer loop
      vertex 1.43242 -1.34513 1.4
      vertex 1.75317 -1.64634 1.4
      vertex 1.58972 -1.155 1.4
    endloop
  endfacet
  facet normal 0 0 1
    outer loop
      vertex 1.75317 -1.64634 1.4
      vertex 1.43242 -1.34513 1.4
      vertex 1.533 -1.85308 1.4
    endloop
  endfacet
  facet normal -0 0 1
    outer loop
      vertex 1.25254 -1.51406 1.4
      vertex 1.533 -1.85308 1.4
      vertex 1.43242 -1.34513 1.4
    endloop
  endfacet
  facet normal 0 0 1
    outer loop
      vertex 1.533 -1.85308 1.4
      vertex 1.25254 -1.51406 1.4
      vertex 1.28866 -2.03061 1.4
    endloop
  endfacet
  facet normal -0 0 1
    outer loop
      vertex 1.0529 -1.6591 1.4
      vertex 1.28866 -2.03061 1.4
      vertex 1.25254 -1.51406 1.4
    endloop
  endfacet
  facet normal 0 0 1
    outer loop
      vertex 1.0529 -1.6591 1.4
      vertex 1.024 -2.17611 1.4
      vertex 1.28866 -2.03061 1.4
    endloop
  endfacet
  facet normal -0 0 1
    outer loop
      vertex 0.836656 -1.77798 1.4
      vertex 1.024 -2.17611 1.4
      vertex 1.0529 -1.6591 1.4
    endloop
  endfacet
  facet normal 0 0 1
    outer loop
      vertex 0.836656 -1.77798 1.4
      vertex 0.743185 -2.28729 1.4
      vertex 1.024 -2.17611 1.4
    endloop
  endfacet
  facet normal -0 0 1
    outer loop
      vertex 0.607218 -1.86883 1.4
      vertex 0.743185 -2.28729 1.4
      vertex 0.836656 -1.77798 1.4
    endloop
  endfacet
  facet normal 0 0 1
    outer loop
      vertex 0.607218 -1.86883 1.4
      vertex 0.450651 -2.3624 1.4
      vertex 0.743185 -2.28729 1.4
    endloop
  endfacet
  facet normal -0 0 1
    outer loop
      vertex 0.368204 -1.93019 1.4
      vertex 0.450651 -2.3624 1.4
      vertex 0.607218 -1.86883 1.4
    endloop
  endfacet
  facet normal 0 0 1
    outer loop
      vertex 0.368204 -1.93019 1.4
      vertex 0.151011 -2.40025 1.4
      vertex 0.450651 -2.3624 1.4
    endloop
  endfacet
  facet normal -0 0 1
    outer loop
      vertex 0.123383 -1.96112 1.4
      vertex 0.151011 -2.40025 1.4
      vertex 0.368204 -1.93019 1.4
    endloop
  endfacet
  facet normal -0 0 1
    outer loop
      vertex -0.123383 -1.96112 1.4
      vertex 0.151011 -2.40025 1.4
      vertex 0.123383 -1.96112 1.4
    endloop
  endfacet
  facet normal 0 0 1
    outer loop
      vertex -0.123383 -1.96112 1.4
      vertex -0.151011 -2.40025 1.4
      vertex 0.151011 -2.40025 1.4
    endloop
  endfacet
  facet normal 0 0 1
    outer loop
      vertex -0.368204 -1.93019 1.4
      vertex -0.151011 -2.40025 1.4
      vertex -0.123383 -1.96112 1.4
    endloop
  endfacet
  facet normal 0 0 1
    outer loop
      vertex -0.368204 -1.93019 1.4
      vertex -0.450651 -2.3624 1.4
      vertex -0.151011 -2.40025 1.4
    endloop
  endfacet
  facet normal 0 0 1
    outer loop
      vertex -0.607218 -1.86883 1.4
      vertex -0.450651 -2.3624 1.4
      vertex -0.368204 -1.93019 1.4
    endloop
  endfacet
  facet normal 0 0 1
    outer loop
      vertex -0.607218 -1.86883 1.4
      vertex -0.743185 -2.28729 1.4
      vertex -0.450651 -2.3624 1.4
    endloop
  endfacet
  facet normal 0 0 1
    outer loop
      vertex -0.836656 -1.77798 1.4
      vertex -0.743185 -2.28729 1.4
      vertex -0.607218 -1.86883 1.4
    endloop
  endfacet
  facet normal 0 0 1
    outer loop
      vertex -0.836656 -1.77798 1.4
      vertex -1.024 -2.17611 1.4
      vertex -0.743185 -2.28729 1.4
    endloop
  endfacet
  facet normal 0 0 1
    outer loop
      vertex -1.0529 -1.6591 1.4
      vertex -1.024 -2.17611 1.4
      vertex -0.836656 -1.77798 1.4
    endloop
  endfacet
  facet normal 0 0 1
    outer loop
      vertex -1.28866 -2.03061 1.4
      vertex -1.0529 -1.6591 1.4
      vertex -1.25254 -1.51406 1.4
    endloop
  endfacet
  facet normal 0 0 1
    outer loop
      vertex -1.0529 -1.6591 1.4
      vertex -1.28866 -2.03061 1.4
      vertex -1.024 -2.17611 1.4
    endloop
  endfacet
  facet normal 0 0 1
    outer loop
      vertex -1.533 -1.85308 1.4
      vertex -1.25254 -1.51406 1.4
      vertex -1.43242 -1.34513 1.4
    endloop
  endfacet
  facet normal 0 0 1
    outer loop
      vertex -1.25254 -1.51406 1.4
      vertex -1.533 -1.85308 1.4
      vertex -1.28866 -2.03061 1.4
    endloop
  endfacet
  facet normal 0 0 1
    outer loop
      vertex -1.75317 -1.64634 1.4
      vertex -1.43242 -1.34513 1.4
      vertex -1.58972 -1.155 1.4
    endloop
  endfacet
  facet normal 0 0 1
    outer loop
      vertex -1.94569 -1.41362 1.4
      vertex -1.58972 -1.155 1.4
      vertex -1.72194 -0.946646 1.4
    endloop
  endfacet
  facet normal 0 0 1
    outer loop
      vertex -1.43242 -1.34513 1.4
      vertex -1.75317 -1.64634 1.4
      vertex -1.533 -1.85308 1.4
    endloop
  endfacet
  facet normal 0 0 1
    outer loop
      vertex -2.10752 -1.15862 1.4
      vertex -1.72194 -0.946646 1.4
      vertex -1.82701 -0.723364 1.4
    endloop
  endfacet
  facet normal 0 0 1
    outer loop
      vertex -2.23611 -0.885339 1.4
      vertex -1.82701 -0.723364 1.4
      vertex -1.90326 -0.488675 1.4
    endloop
  endfacet
  facet normal 0 0 1
    outer loop
      vertex -1.58972 -1.155 1.4
      vertex -1.94569 -1.41362 1.4
      vertex -1.75317 -1.64634 1.4
    endloop
  endfacet
  facet normal 0 0 1
    outer loop
      vertex -2.32944 -0.598099 1.4
      vertex -1.90326 -0.488675 1.4
      vertex -1.9495 -0.24628 1.4
    endloop
  endfacet
  facet normal 0 0 1
    outer loop
      vertex -2.38603 -0.301426 1.4
      vertex -1.9495 -0.24628 1.4
      vertex -1.965 0 1.4
    endloop
  endfacet
  facet normal 0 0 1
    outer loop
      vertex -1.90326 0.488675 1.4
      vertex -2.32944 0.598099 1.4
      vertex -1.9495 0.24628 1.4
    endloop
  endfacet
  facet normal 0 0 1
    outer loop
      vertex -1.72194 -0.946646 1.4
      vertex -2.10752 -1.15862 1.4
      vertex -1.94569 -1.41362 1.4
    endloop
  endfacet
  facet normal -0 0 1
    outer loop
      vertex -2.38603 0.301426 1.4
      vertex -1.9495 0.24628 1.4
      vertex -2.32944 0.598099 1.4
    endloop
  endfacet
  facet normal 0 0 1
    outer loop
      vertex -1.82701 -0.723364 1.4
      vertex -2.23611 -0.885339 1.4
      vertex -2.10752 -1.15862 1.4
    endloop
  endfacet
  facet normal 0 0 1
    outer loop
      vertex -1.9495 0.24628 1.4
      vertex -2.38603 0.301426 1.4
      vertex -1.965 0 1.4
    endloop
  endfacet
  facet normal 0 0 1
    outer loop
      vertex -1.90326 -0.488675 1.4
      vertex -2.32944 -0.598099 1.4
      vertex -2.23611 -0.885339 1.4
    endloop
  endfacet
  facet normal 0 0 1
    outer loop
      vertex -2.405 0 1.4
      vertex -1.965 0 1.4
      vertex -2.38603 0.301426 1.4
    endloop
  endfacet
  facet normal 0 0 1
    outer loop
      vertex -1.9495 -0.24628 1.4
      vertex -2.38603 -0.301426 1.4
      vertex -2.32944 -0.598099 1.4
    endloop
  endfacet
  facet normal 0 0 1
    outer loop
      vertex -1.965 0 1.4
      vertex -2.405 0 1.4
      vertex -2.38603 -0.301426 1.4
    endloop
  endfacet
  facet normal -0.951056 -0.309017 0
    outer loop
      vertex -2.23611 -0.885339 0
      vertex -2.32944 -0.598099 1.4
      vertex -2.32944 -0.598099 0
    endloop
  endfacet
  facet normal -0.951056 -0.309017 0
    outer loop
      vertex -2.32944 -0.598099 1.4
      vertex -2.23611 -0.885339 0
      vertex -2.23611 -0.885339 1.4
    endloop
  endfacet
  facet normal 0 -1 0
    outer loop
      vertex -0.151011 -2.40025 0
      vertex 0.151011 -2.40025 1.4
      vertex -0.151011 -2.40025 1.4
    endloop
  endfacet
  facet normal 0 -1 -0
    outer loop
      vertex 0.151011 -2.40025 1.4
      vertex -0.151011 -2.40025 0
      vertex 0.151011 -2.40025 0
    endloop
  endfacet
  facet normal 0.368117 -0.929779 0
    outer loop
      vertex 0.743185 -2.28729 0
      vertex 1.024 -2.17611 1.4
      vertex 0.743185 -2.28729 1.4
    endloop
  endfacet
  facet normal 0.368117 -0.929779 0
    outer loop
      vertex 1.024 -2.17611 1.4
      vertex 0.743185 -2.28729 0
      vertex 1.024 -2.17611 0
    endloop
  endfacet
  facet normal 0.951056 -0.309017 0
    outer loop
      vertex 2.23611 -0.885339 1.4
      vertex 2.32944 -0.598099 0
      vertex 2.32944 -0.598099 1.4
    endloop
  endfacet
  facet normal 0.951056 -0.309017 0
    outer loop
      vertex 2.32944 -0.598099 0
      vertex 2.23611 -0.885339 1.4
      vertex 2.23611 -0.885339 0
    endloop
  endfacet
  facet normal -0.982289 -0.18737 0
    outer loop
      vertex -2.32944 -0.598099 0
      vertex -2.38603 -0.301426 1.4
      vertex -2.38603 -0.301426 0
    endloop
  endfacet
  facet normal -0.982289 -0.18737 0
    outer loop
      vertex -2.38603 -0.301426 1.4
      vertex -2.32944 -0.598099 0
      vertex -2.32944 -0.598099 1.4
    endloop
  endfacet
  facet normal 0.368117 0.929779 -0
    outer loop
      vertex 1.024 2.17611 0
      vertex 0.743185 2.28729 1.4
      vertex 1.024 2.17611 1.4
    endloop
  endfacet
  facet normal 0.368117 0.929779 0
    outer loop
      vertex 0.743185 2.28729 1.4
      vertex 1.024 2.17611 0
      vertex 0.743185 2.28729 0
    endloop
  endfacet
  facet normal 0.770518 0.637419 0
    outer loop
      vertex 1.94569 1.41362 1.4
      vertex 1.75317 1.64634 0
      vertex 1.75317 1.64634 1.4
    endloop
  endfacet
  facet normal 0.770518 0.637419 0
    outer loop
      vertex 1.75317 1.64634 0
      vertex 1.94569 1.41362 1.4
      vertex 1.94569 1.41362 0
    endloop
  endfacet
  facet normal -0.368117 -0.929779 0
    outer loop
      vertex -1.024 -2.17611 0
      vertex -0.743185 -2.28729 1.4
      vertex -1.024 -2.17611 1.4
    endloop
  endfacet
  facet normal -0.368117 -0.929779 -0
    outer loop
      vertex -0.743185 -2.28729 1.4
      vertex -1.024 -2.17611 0
      vertex -0.743185 -2.28729 0
    endloop
  endfacet
  facet normal 0.951056 0.309017 0
    outer loop
      vertex 2.32944 0.598099 1.4
      vertex 2.23611 0.885339 0
      vertex 2.23611 0.885339 1.4
    endloop
  endfacet
  facet normal 0.951056 0.309017 0
    outer loop
      vertex 2.23611 0.885339 0
      vertex 2.32944 0.598099 1.4
      vertex 2.32944 0.598099 0
    endloop
  endfacet
  facet normal 0.125322 0.992116 -0
    outer loop
      vertex 0.450651 2.3624 0
      vertex 0.151011 2.40025 1.4
      vertex 0.450651 2.3624 1.4
    endloop
  endfacet
  facet normal 0.125322 0.992116 0
    outer loop
      vertex 0.151011 2.40025 1.4
      vertex 0.450651 2.3624 0
      vertex 0.151011 2.40025 0
    endloop
  endfacet
  facet normal 0.770518 -0.637419 0
    outer loop
      vertex 1.75317 -1.64634 1.4
      vertex 1.94569 -1.41362 0
      vertex 1.94569 -1.41362 1.4
    endloop
  endfacet
  facet normal 0.770518 -0.637419 0
    outer loop
      vertex 1.94569 -1.41362 0
      vertex 1.75317 -1.64634 1.4
      vertex 1.75317 -1.64634 0
    endloop
  endfacet
  facet normal -0.844325 -0.535832 0
    outer loop
      vertex -1.94569 -1.41362 0
      vertex -2.10752 -1.15862 1.4
      vertex -2.10752 -1.15862 0
    endloop
  endfacet
  facet normal -0.844325 -0.535832 0
    outer loop
      vertex -2.10752 -1.15862 1.4
      vertex -1.94569 -1.41362 0
      vertex -1.94569 -1.41362 1.4
    endloop
  endfacet
  facet normal -0.125322 0.992116 0
    outer loop
      vertex -0.151011 2.40025 0
      vertex -0.450651 2.3624 1.4
      vertex -0.151011 2.40025 1.4
    endloop
  endfacet
  facet normal -0.125322 0.992116 0
    outer loop
      vertex -0.450651 2.3624 1.4
      vertex -0.151011 2.40025 0
      vertex -0.450651 2.3624 0
    endloop
  endfacet
  facet normal 0.24869 0.968583 -0
    outer loop
      vertex 0.743185 2.28729 0
      vertex 0.450651 2.3624 1.4
      vertex 0.743185 2.28729 1.4
    endloop
  endfacet
  facet normal 0.24869 0.968583 0
    outer loop
      vertex 0.450651 2.3624 1.4
      vertex 0.743185 2.28729 0
      vertex 0.450651 2.3624 0
    endloop
  endfacet
  facet normal -0.982289 0.18737 0
    outer loop
      vertex -2.38603 0.301426 0
      vertex -2.32944 0.598099 1.4
      vertex -2.32944 0.598099 0
    endloop
  endfacet
  facet normal -0.982289 0.18737 0
    outer loop
      vertex -2.32944 0.598099 1.4
      vertex -2.38603 0.301426 0
      vertex -2.38603 0.301426 1.4
    endloop
  endfacet
  facet normal -0.481759 -0.876304 0
    outer loop
      vertex -1.28866 -2.03061 0
      vertex -1.024 -2.17611 1.4
      vertex -1.28866 -2.03061 1.4
    endloop
  endfacet
  facet normal -0.481759 -0.876304 -0
    outer loop
      vertex -1.024 -2.17611 1.4
      vertex -1.28866 -2.03061 0
      vertex -1.024 -2.17611 0
    endloop
  endfacet
  facet normal 0.5878 -0.809007 0
    outer loop
      vertex 1.28866 -2.03061 0
      vertex 1.533 -1.85308 1.4
      vertex 1.28866 -2.03061 1.4
    endloop
  endfacet
  facet normal 0.5878 -0.809007 0
    outer loop
      vertex 1.533 -1.85308 1.4
      vertex 1.28866 -2.03061 0
      vertex 1.533 -1.85308 0
    endloop
  endfacet
  facet normal -0.5878 -0.809007 0
    outer loop
      vertex -1.533 -1.85308 0
      vertex -1.28866 -2.03061 1.4
      vertex -1.533 -1.85308 1.4
    endloop
  endfacet
  facet normal -0.5878 -0.809007 -0
    outer loop
      vertex -1.28866 -2.03061 1.4
      vertex -1.533 -1.85308 0
      vertex -1.28866 -2.03061 0
    endloop
  endfacet
  facet normal -0.24869 -0.968583 0
    outer loop
      vertex -0.743185 -2.28729 0
      vertex -0.450651 -2.3624 1.4
      vertex -0.743185 -2.28729 1.4
    endloop
  endfacet
  facet normal -0.24869 -0.968583 -0
    outer loop
      vertex -0.450651 -2.3624 1.4
      vertex -0.743185 -2.28729 0
      vertex -0.450651 -2.3624 0
    endloop
  endfacet
  facet normal 0 1 -0
    outer loop
      vertex 0.123383 1.96112 1.4
      vertex -0.123383 1.96112 4.34
      vertex 0.123383 1.96112 4.34
    endloop
  endfacet
  facet normal 0 1 0
    outer loop
      vertex -0.123383 1.96112 4.34
      vertex 0.123383 1.96112 1.4
      vertex -0.123383 1.96112 1.4
    endloop
  endfacet
  facet normal 0.125341 -0.992114 0
    outer loop
      vertex 0.123383 -1.96112 1.4
      vertex 0.368204 -1.93019 4.34
      vertex 0.123383 -1.96112 4.34
    endloop
  endfacet
  facet normal 0.125341 -0.992114 0
    outer loop
      vertex 0.368204 -1.93019 4.34
      vertex 0.123383 -1.96112 1.4
      vertex 0.368204 -1.93019 1.4
    endloop
  endfacet
  facet normal -0.248658 -0.968591 0
    outer loop
      vertex -0.607218 -1.86883 1.4
      vertex -0.368204 -1.93019 4.34
      vertex -0.607218 -1.86883 4.34
    endloop
  endfacet
  facet normal -0.248658 -0.968591 -0
    outer loop
      vertex -0.368204 -1.93019 4.34
      vertex -0.607218 -1.86883 1.4
      vertex -0.368204 -1.93019 1.4
    endloop
  endfacet
  facet normal 0.368156 0.929764 -0
    outer loop
      vertex 0.836656 1.77798 1.4
      vertex 0.607218 1.86883 4.34
      vertex 0.836656 1.77798 4.34
    endloop
  endfacet
  facet normal 0.368156 0.929764 0
    outer loop
      vertex 0.607218 1.86883 4.34
      vertex 0.836656 1.77798 1.4
      vertex 0.607218 1.86883 1.4
    endloop
  endfacet
  facet normal 0.904825 0.425784 0
    outer loop
      vertex 1.82701 0.723364 4.34
      vertex 1.72194 0.946646 1.4
      vertex 1.72194 0.946646 4.34
    endloop
  endfacet
  facet normal 0.904825 0.425784 0
    outer loop
      vertex 1.72194 0.946646 1.4
      vertex 1.82701 0.723364 4.34
      vertex 1.82701 0.723364 1.4
    endloop
  endfacet
  facet normal 0.770492 -0.63745 0
    outer loop
      vertex 1.43242 -1.34513 4.34
      vertex 1.58972 -1.155 1.4
      vertex 1.58972 -1.155 4.34
    endloop
  endfacet
  facet normal 0.770492 -0.63745 0
    outer loop
      vertex 1.58972 -1.155 1.4
      vertex 1.43242 -1.34513 4.34
      vertex 1.43242 -1.34513 1.4
    endloop
  endfacet
  facet normal -0.951063 -0.308998 0
    outer loop
      vertex -1.82701 -0.723364 1.4
      vertex -1.90326 -0.488675 4.34
      vertex -1.90326 -0.488675 1.4
    endloop
  endfacet
  facet normal -0.951063 -0.308998 0
    outer loop
      vertex -1.90326 -0.488675 4.34
      vertex -1.82701 -0.723364 1.4
      vertex -1.82701 -0.723364 4.34
    endloop
  endfacet
  facet normal 0.844338 -0.535811 0
    outer loop
      vertex 1.58972 -1.155 4.34
      vertex 1.72194 -0.946646 1.4
      vertex 1.72194 -0.946646 4.34
    endloop
  endfacet
  facet normal 0.844338 -0.535811 0
    outer loop
      vertex 1.72194 -0.946646 1.4
      vertex 1.58972 -1.155 4.34
      vertex 1.58972 -1.155 1.4
    endloop
  endfacet
  facet normal -0.125341 -0.992114 0
    outer loop
      vertex -0.368204 -1.93019 1.4
      vertex -0.123383 -1.96112 4.34
      vertex -0.368204 -1.93019 4.34
    endloop
  endfacet
  facet normal -0.125341 -0.992114 -0
    outer loop
      vertex -0.123383 -1.96112 4.34
      vertex -0.368204 -1.93019 1.4
      vertex -0.123383 -1.96112 1.4
    endloop
  endfacet
  facet normal 0.982287 0.187384 0
    outer loop
      vertex 1.9495 0.24628 4.34
      vertex 1.90326 0.488675 1.4
      vertex 1.90326 0.488675 4.34
    endloop
  endfacet
  facet normal 0.982287 0.187384 0
    outer loop
      vertex 1.90326 0.488675 1.4
      vertex 1.9495 0.24628 4.34
      vertex 1.9495 0.24628 1.4
    endloop
  endfacet
  facet normal -0.48175 -0.876309 0
    outer loop
      vertex -1.0529 -1.6591 1.4
      vertex -0.836656 -1.77798 4.34
      vertex -1.0529 -1.6591 4.34
    endloop
  endfacet
  facet normal -0.48175 -0.876309 -0
    outer loop
      vertex -0.836656 -1.77798 4.34
      vertex -1.0529 -1.6591 1.4
      vertex -0.836656 -1.77798 1.4
    endloop
  endfacet
  facet normal -0.998025 -0.0628122 0
    outer loop
      vertex -1.9495 -0.24628 1.4
      vertex -1.965 0 4.34
      vertex -1.965 0 1.4
    endloop
  endfacet
  facet normal -0.998025 -0.0628122 0
    outer loop
      vertex -1.965 0 4.34
      vertex -1.9495 -0.24628 1.4
      vertex -1.9495 -0.24628 4.34
    endloop
  endfacet
  facet normal -0.982287 -0.187384 0
    outer loop
      vertex -1.90326 -0.488675 1.4
      vertex -1.9495 -0.24628 4.34
      vertex -1.9495 -0.24628 1.4
    endloop
  endfacet
  facet normal -0.982287 -0.187384 0
    outer loop
      vertex -1.9495 -0.24628 4.34
      vertex -1.90326 -0.488675 1.4
      vertex -1.90326 -0.488675 4.34
    endloop
  endfacet
  facet normal 0.951063 0.308998 0
    outer loop
      vertex 1.90326 0.488675 4.34
      vertex 1.82701 0.723364 1.4
      vertex 1.82701 0.723364 4.34
    endloop
  endfacet
  facet normal 0.951063 0.308998 0
    outer loop
      vertex 1.82701 0.723364 1.4
      vertex 1.90326 0.488675 4.34
      vertex 1.90326 0.488675 1.4
    endloop
  endfacet
  facet normal 0.368156 -0.929764 0
    outer loop
      vertex 0.607218 -1.86883 1.4
      vertex 0.836656 -1.77798 4.34
      vertex 0.607218 -1.86883 4.34
    endloop
  endfacet
  facet normal 0.368156 -0.929764 0
    outer loop
      vertex 0.836656 -1.77798 4.34
      vertex 0.607218 -1.86883 1.4
      vertex 0.836656 -1.77798 1.4
    endloop
  endfacet
  facet normal -0.951063 0.308998 0
    outer loop
      vertex -1.90326 0.488675 1.4
      vertex -1.82701 0.723364 4.34
      vertex -1.82701 0.723364 1.4
    endloop
  endfacet
  facet normal -0.951063 0.308998 0
    outer loop
      vertex -1.82701 0.723364 4.34
      vertex -1.90326 0.488675 1.4
      vertex -1.90326 0.488675 4.34
    endloop
  endfacet
  facet normal 0.998025 0.0628122 0
    outer loop
      vertex 1.965 0 4.34
      vertex 1.9495 0.24628 1.4
      vertex 1.9495 0.24628 4.34
    endloop
  endfacet
  facet normal 0.998025 0.0628122 0
    outer loop
      vertex 1.9495 0.24628 1.4
      vertex 1.965 0 4.34
      vertex 1.965 0 1.4
    endloop
  endfacet
  facet normal -0.684572 0.728946 0
    outer loop
      vertex -1.25254 1.51406 1.4
      vertex -1.43242 1.34513 4.34
      vertex -1.25254 1.51406 4.34
    endloop
  endfacet
  facet normal -0.684572 0.728946 0
    outer loop
      vertex -1.43242 1.34513 4.34
      vertex -1.25254 1.51406 1.4
      vertex -1.43242 1.34513 1.4
    endloop
  endfacet
  facet normal 0 0 1
    outer loop
      vertex 1.9495 0.24628 4.34
      vertex 1.9495 -0.24628 4.34
      vertex 1.965 0 4.34
    endloop
  endfacet
  facet normal 0 0 1
    outer loop
      vertex 1.90326 0.488675 4.34
      vertex 1.9495 -0.24628 4.34
      vertex 1.9495 0.24628 4.34
    endloop
  endfacet
  facet normal 0 0 1
    outer loop
      vertex 1.90326 0.488675 4.34
      vertex 1.90326 -0.488675 4.34
      vertex 1.9495 -0.24628 4.34
    endloop
  endfacet
  facet normal 0 0 1
    outer loop
      vertex 1.82701 0.723364 4.34
      vertex 1.90326 -0.488675 4.34
      vertex 1.90326 0.488675 4.34
    endloop
  endfacet
  facet normal 0 0 1
    outer loop
      vertex 1.82701 0.723364 4.34
      vertex 1.82701 -0.723364 4.34
      vertex 1.90326 -0.488675 4.34
    endloop
  endfacet
  facet normal 0 0 1
    outer loop
      vertex 1.72194 0.946646 4.34
      vertex 1.82701 -0.723364 4.34
      vertex 1.82701 0.723364 4.34
    endloop
  endfacet
  facet normal 0 0 1
    outer loop
      vertex 1.72194 0.946646 4.34
      vertex 1.72194 -0.946646 4.34
      vertex 1.82701 -0.723364 4.34
    endloop
  endfacet
  facet normal 0 0 1
    outer loop
      vertex 1.58972 1.155 4.34
      vertex 1.72194 -0.946646 4.34
      vertex 1.72194 0.946646 4.34
    endloop
  endfacet
  facet normal 0 0 1
    outer loop
      vertex 1.58972 1.155 4.34
      vertex 1.58972 -1.155 4.34
      vertex 1.72194 -0.946646 4.34
    endloop
  endfacet
  facet normal 0 0 1
    outer loop
      vertex 1.43242 1.34513 4.34
      vertex 1.58972 -1.155 4.34
      vertex 1.58972 1.155 4.34
    endloop
  endfacet
  facet normal 0 0 1
    outer loop
      vertex 1.43242 1.34513 4.34
      vertex 1.43242 -1.34513 4.34
      vertex 1.58972 -1.155 4.34
    endloop
  endfacet
  facet normal 0 0 1
    outer loop
      vertex 1.25254 1.51406 4.34
      vertex 1.43242 -1.34513 4.34
      vertex 1.43242 1.34513 4.34
    endloop
  endfacet
  facet normal 0 0 1
    outer loop
      vertex 1.25254 1.51406 4.34
      vertex 1.25254 -1.51406 4.34
      vertex 1.43242 -1.34513 4.34
    endloop
  endfacet
  facet normal 0 0 1
    outer loop
      vertex 1.0529 1.6591 4.34
      vertex 1.25254 -1.51406 4.34
      vertex 1.25254 1.51406 4.34
    endloop
  endfacet
  facet normal 0 0 1
    outer loop
      vertex 1.0529 1.6591 4.34
      vertex 1.0529 -1.6591 4.34
      vertex 1.25254 -1.51406 4.34
    endloop
  endfacet
  facet normal 0 0 1
    outer loop
      vertex 0.836656 1.77798 4.34
      vertex 1.0529 -1.6591 4.34
      vertex 1.0529 1.6591 4.34
    endloop
  endfacet
  facet normal 0 0 1
    outer loop
      vertex 0.836656 1.77798 4.34
      vertex 0.836656 -1.77798 4.34
      vertex 1.0529 -1.6591 4.34
    endloop
  endfacet
  facet normal 0 0 1
    outer loop
      vertex 0.607218 1.86883 4.34
      vertex 0.836656 -1.77798 4.34
      vertex 0.836656 1.77798 4.34
    endloop
  endfacet
  facet normal 0 0 1
    outer loop
      vertex 0.607218 1.86883 4.34
      vertex 0.607218 -1.86883 4.34
      vertex 0.836656 -1.77798 4.34
    endloop
  endfacet
  facet normal 0 0 1
    outer loop
      vertex 0.368204 1.93019 4.34
      vertex 0.607218 -1.86883 4.34
      vertex 0.607218 1.86883 4.34
    endloop
  endfacet
  facet normal 0 0 1
    outer loop
      vertex 0.368204 1.93019 4.34
      vertex 0.368204 -1.93019 4.34
      vertex 0.607218 -1.86883 4.34
    endloop
  endfacet
  facet normal 0 0 1
    outer loop
      vertex 0.123383 1.96112 4.34
      vertex 0.368204 -1.93019 4.34
      vertex 0.368204 1.93019 4.34
    endloop
  endfacet
  facet normal 0 0 1
    outer loop
      vertex 0.123383 1.96112 4.34
      vertex 0.123383 -1.96112 4.34
      vertex 0.368204 -1.93019 4.34
    endloop
  endfacet
  facet normal -0 0 1
    outer loop
      vertex -0.123383 1.96112 4.34
      vertex 0.123383 -1.96112 4.34
      vertex 0.123383 1.96112 4.34
    endloop
  endfacet
  facet normal 0 0 1
    outer loop
      vertex -0.123383 1.96112 4.34
      vertex -0.123383 -1.96112 4.34
      vertex 0.123383 -1.96112 4.34
    endloop
  endfacet
  facet normal -0 0 1
    outer loop
      vertex -0.368204 1.93019 4.34
      vertex -0.123383 -1.96112 4.34
      vertex -0.123383 1.96112 4.34
    endloop
  endfacet
  facet normal 0 0 1
    outer loop
      vertex -0.368204 1.93019 4.34
      vertex -0.368204 -1.93019 4.34
      vertex -0.123383 -1.96112 4.34
    endloop
  endfacet
  facet normal -0 0 1
    outer loop
      vertex -0.607218 1.86883 4.34
      vertex -0.368204 -1.93019 4.34
      vertex -0.368204 1.93019 4.34
    endloop
  endfacet
  facet normal 0 0 1
    outer loop
      vertex -0.607218 1.86883 4.34
      vertex -0.607218 -1.86883 4.34
      vertex -0.368204 -1.93019 4.34
    endloop
  endfacet
  facet normal -0 0 1
    outer loop
      vertex -0.836656 1.77798 4.34
      vertex -0.607218 -1.86883 4.34
      vertex -0.607218 1.86883 4.34
    endloop
  endfacet
  facet normal 0 0 1
    outer loop
      vertex -0.836656 1.77798 4.34
      vertex -0.836656 -1.77798 4.34
      vertex -0.607218 -1.86883 4.34
    endloop
  endfacet
  facet normal -0 0 1
    outer loop
      vertex -1.0529 1.6591 4.34
      vertex -0.836656 -1.77798 4.34
      vertex -0.836656 1.77798 4.34
    endloop
  endfacet
  facet normal 0 0 1
    outer loop
      vertex -1.0529 1.6591 4.34
      vertex -1.0529 -1.6591 4.34
      vertex -0.836656 -1.77798 4.34
    endloop
  endfacet
  facet normal -0 0 1
    outer loop
      vertex -1.25254 1.51406 4.34
      vertex -1.0529 -1.6591 4.34
      vertex -1.0529 1.6591 4.34
    endloop
  endfacet
  facet normal 0 0 1
    outer loop
      vertex -1.25254 1.51406 4.34
      vertex -1.25254 -1.51406 4.34
      vertex -1.0529 -1.6591 4.34
    endloop
  endfacet
  facet normal -0 0 1
    outer loop
      vertex -1.43242 1.34513 4.34
      vertex -1.25254 -1.51406 4.34
      vertex -1.25254 1.51406 4.34
    endloop
  endfacet
  facet normal 0 0 1
    outer loop
      vertex -1.43242 1.34513 4.34
      vertex -1.43242 -1.34513 4.34
      vertex -1.25254 -1.51406 4.34
    endloop
  endfacet
  facet normal -0 0 1
    outer loop
      vertex -1.58972 1.155 4.34
      vertex -1.43242 -1.34513 4.34
      vertex -1.43242 1.34513 4.34
    endloop
  endfacet
  facet normal 0 0 1
    outer loop
      vertex -1.58972 1.155 4.34
      vertex -1.58972 -1.155 4.34
      vertex -1.43242 -1.34513 4.34
    endloop
  endfacet
  facet normal -0 0 1
    outer loop
      vertex -1.72194 0.946646 4.34
      vertex -1.58972 -1.155 4.34
      vertex -1.58972 1.155 4.34
    endloop
  endfacet
  facet normal 0 0 1
    outer loop
      vertex -1.72194 0.946646 4.34
      vertex -1.72194 -0.946646 4.34
      vertex -1.58972 -1.155 4.34
    endloop
  endfacet
  facet normal -0 0 1
    outer loop
      vertex -1.82701 0.723364 4.34
      vertex -1.72194 -0.946646 4.34
      vertex -1.72194 0.946646 4.34
    endloop
  endfacet
  facet normal 0 0 1
    outer loop
      vertex -1.82701 0.723364 4.34
      vertex -1.82701 -0.723364 4.34
      vertex -1.72194 -0.946646 4.34
    endloop
  endfacet
  facet normal -0 0 1
    outer loop
      vertex -1.90326 0.488675 4.34
      vertex -1.82701 -0.723364 4.34
      vertex -1.82701 0.723364 4.34
    endloop
  endfacet
  facet normal 0 0 1
    outer loop
      vertex -1.90326 0.488675 4.34
      vertex -1.90326 -0.488675 4.34
      vertex -1.82701 -0.723364 4.34
    endloop
  endfacet
  facet normal -0 0 1
    outer loop
      vertex -1.9495 0.24628 4.34
      vertex -1.90326 -0.488675 4.34
      vertex -1.90326 0.488675 4.34
    endloop
  endfacet
  facet normal 0 0 1
    outer loop
      vertex -1.9495 0.24628 4.34
      vertex -1.9495 -0.24628 4.34
      vertex -1.90326 -0.488675 4.34
    endloop
  endfacet
  facet normal 0 -0 1
    outer loop
      vertex -1.9495 -0.24628 4.34
      vertex -1.9495 0.24628 4.34
      vertex -1.965 0 4.34
    endloop
  endfacet
  facet normal -0.770492 -0.63745 0
    outer loop
      vertex -1.43242 -1.34513 1.4
      vertex -1.58972 -1.155 4.34
      vertex -1.58972 -1.155 1.4
    endloop
  endfacet
  facet normal -0.770492 -0.63745 0
    outer loop
      vertex -1.58972 -1.155 4.34
      vertex -1.43242 -1.34513 1.4
      vertex -1.43242 -1.34513 4.34
    endloop
  endfacet
  facet normal 0.998025 -0.0628122 0
    outer loop
      vertex 1.9495 -0.24628 4.34
      vertex 1.965 0 1.4
      vertex 1.965 0 4.34
    endloop
  endfacet
  facet normal 0.998025 -0.0628122 0
    outer loop
      vertex 1.965 0 1.4
      vertex 1.9495 -0.24628 4.34
      vertex 1.9495 -0.24628 1.4
    endloop
  endfacet
  facet normal 0 -1 0
    outer loop
      vertex -0.123383 -1.96112 1.4
      vertex 0.123383 -1.96112 4.34
      vertex -0.123383 -1.96112 4.34
    endloop
  endfacet
  facet normal 0 -1 -0
    outer loop
      vertex 0.123383 -1.96112 4.34
      vertex -0.123383 -1.96112 1.4
      vertex 0.123383 -1.96112 1.4
    endloop
  endfacet
  facet normal -0.998025 0.0628122 0
    outer loop
      vertex -1.965 0 1.4
      vertex -1.9495 0.24628 4.34
      vertex -1.9495 0.24628 1.4
    endloop
  endfacet
  facet normal -0.998025 0.0628122 0
    outer loop
      vertex -1.9495 0.24628 4.34
      vertex -1.965 0 1.4
      vertex -1.965 0 4.34
    endloop
  endfacet
  facet normal 0.982287 -0.187384 0
    outer loop
      vertex 1.90326 -0.488675 4.34
      vertex 1.9495 -0.24628 1.4
      vertex 1.9495 -0.24628 4.34
    endloop
  endfacet
  facet normal 0.982287 -0.187384 0
    outer loop
      vertex 1.9495 -0.24628 1.4
      vertex 1.90326 -0.488675 4.34
      vertex 1.90326 -0.488675 1.4
    endloop
  endfacet
  facet normal -0.587767 0.80903 0
    outer loop
      vertex -1.0529 1.6591 1.4
      vertex -1.25254 1.51406 4.34
      vertex -1.0529 1.6591 4.34
    endloop
  endfacet
  facet normal -0.587767 0.80903 0
    outer loop
      vertex -1.25254 1.51406 4.34
      vertex -1.0529 1.6591 1.4
      vertex -1.25254 1.51406 1.4
    endloop
  endfacet
  facet normal -0.48175 0.876309 0
    outer loop
      vertex -0.836656 1.77798 1.4
      vertex -1.0529 1.6591 4.34
      vertex -0.836656 1.77798 4.34
    endloop
  endfacet
  facet normal -0.48175 0.876309 0
    outer loop
      vertex -1.0529 1.6591 4.34
      vertex -0.836656 1.77798 1.4
      vertex -1.0529 1.6591 1.4
    endloop
  endfacet
  facet normal -0.125341 0.992114 0
    outer loop
      vertex -0.123383 1.96112 1.4
      vertex -0.368204 1.93019 4.34
      vertex -0.123383 1.96112 4.34
    endloop
  endfacet
  facet normal -0.125341 0.992114 0
    outer loop
      vertex -0.368204 1.93019 4.34
      vertex -0.123383 1.96112 1.4
      vertex -0.368204 1.93019 1.4
    endloop
  endfacet
  facet normal 0.48175 0.876309 -0
    outer loop
      vertex 1.0529 1.6591 1.4
      vertex 0.836656 1.77798 4.34
      vertex 1.0529 1.6591 4.34
    endloop
  endfacet
  facet normal 0.48175 0.876309 0
    outer loop
      vertex 0.836656 1.77798 4.34
      vertex 1.0529 1.6591 1.4
      vertex 0.836656 1.77798 1.4
    endloop
  endfacet
  facet normal 0.844338 0.535811 0
    outer loop
      vertex 1.72194 0.946646 4.34
      vertex 1.58972 1.155 1.4
      vertex 1.58972 1.155 4.34
    endloop
  endfacet
  facet normal 0.844338 0.535811 0
    outer loop
      vertex 1.58972 1.155 1.4
      vertex 1.72194 0.946646 4.34
      vertex 1.72194 0.946646 1.4
    endloop
  endfacet
  facet normal 0.904825 -0.425784 0
    outer loop
      vertex 1.72194 -0.946646 4.34
      vertex 1.82701 -0.723364 1.4
      vertex 1.82701 -0.723364 4.34
    endloop
  endfacet
  facet normal 0.904825 -0.425784 0
    outer loop
      vertex 1.82701 -0.723364 1.4
      vertex 1.72194 -0.946646 4.34
      vertex 1.72194 -0.946646 1.4
    endloop
  endfacet
  facet normal 0.587767 0.80903 -0
    outer loop
      vertex 1.25254 1.51406 1.4
      vertex 1.0529 1.6591 4.34
      vertex 1.25254 1.51406 4.34
    endloop
  endfacet
  facet normal 0.587767 0.80903 0
    outer loop
      vertex 1.0529 1.6591 4.34
      vertex 1.25254 1.51406 1.4
      vertex 1.0529 1.6591 1.4
    endloop
  endfacet
  facet normal -0.368156 0.929764 0
    outer loop
      vertex -0.607218 1.86883 1.4
      vertex -0.836656 1.77798 4.34
      vertex -0.607218 1.86883 4.34
    endloop
  endfacet
  facet normal -0.368156 0.929764 0
    outer loop
      vertex -0.836656 1.77798 4.34
      vertex -0.607218 1.86883 1.4
      vertex -0.836656 1.77798 1.4
    endloop
  endfacet
  facet normal -0.844338 -0.535811 0
    outer loop
      vertex -1.58972 -1.155 1.4
      vertex -1.72194 -0.946646 4.34
      vertex -1.72194 -0.946646 1.4
    endloop
  endfacet
  facet normal -0.844338 -0.535811 0
    outer loop
      vertex -1.72194 -0.946646 4.34
      vertex -1.58972 -1.155 1.4
      vertex -1.58972 -1.155 4.34
    endloop
  endfacet
  facet normal -0.248658 0.968591 0
    outer loop
      vertex -0.368204 1.93019 1.4
      vertex -0.607218 1.86883 4.34
      vertex -0.368204 1.93019 4.34
    endloop
  endfacet
  facet normal -0.248658 0.968591 0
    outer loop
      vertex -0.607218 1.86883 4.34
      vertex -0.368204 1.93019 1.4
      vertex -0.607218 1.86883 1.4
    endloop
  endfacet
  facet normal 0.248658 0.968591 -0
    outer loop
      vertex 0.607218 1.86883 1.4
      vertex 0.368204 1.93019 4.34
      vertex 0.607218 1.86883 4.34
    endloop
  endfacet
  facet normal 0.248658 0.968591 0
    outer loop
      vertex 0.368204 1.93019 4.34
      vertex 0.607218 1.86883 1.4
      vertex 0.368204 1.93019 1.4
    endloop
  endfacet
  facet normal 0.125341 0.992114 -0
    outer loop
      vertex 0.368204 1.93019 1.4
      vertex 0.123383 1.96112 4.34
      vertex 0.368204 1.93019 4.34
    endloop
  endfacet
  facet normal 0.125341 0.992114 0
    outer loop
      vertex 0.123383 1.96112 4.34
      vertex 0.368204 1.93019 1.4
      vertex 0.123383 1.96112 1.4
    endloop
  endfacet
  facet normal 0.48175 -0.876309 0
    outer loop
      vertex 0.836656 -1.77798 1.4
      vertex 1.0529 -1.6591 4.34
      vertex 0.836656 -1.77798 4.34
    endloop
  endfacet
  facet normal 0.48175 -0.876309 0
    outer loop
      vertex 1.0529 -1.6591 4.34
      vertex 0.836656 -1.77798 1.4
      vertex 1.0529 -1.6591 1.4
    endloop
  endfacet
  facet normal 0.951063 -0.308998 0
    outer loop
      vertex 1.82701 -0.723364 4.34
      vertex 1.90326 -0.488675 1.4
      vertex 1.90326 -0.488675 4.34
    endloop
  endfacet
  facet normal 0.951063 -0.308998 0
    outer loop
      vertex 1.90326 -0.488675 1.4
      vertex 1.82701 -0.723364 4.34
      vertex 1.82701 -0.723364 1.4
    endloop
  endfacet
  facet normal -0.587767 -0.80903 0
    outer loop
      vertex -1.25254 -1.51406 1.4
      vertex -1.0529 -1.6591 4.34
      vertex -1.25254 -1.51406 4.34
    endloop
  endfacet
  facet normal -0.587767 -0.80903 -0
    outer loop
      vertex -1.0529 -1.6591 4.34
      vertex -1.25254 -1.51406 1.4
      vertex -1.0529 -1.6591 1.4
    endloop
  endfacet
  facet normal 0.770492 0.63745 0
    outer loop
      vertex 1.58972 1.155 4.34
      vertex 1.43242 1.34513 1.4
      vertex 1.43242 1.34513 4.34
    endloop
  endfacet
  facet normal 0.770492 0.63745 0
    outer loop
      vertex 1.43242 1.34513 1.4
      vertex 1.58972 1.155 4.34
      vertex 1.58972 1.155 1.4
    endloop
  endfacet
  facet normal -0.982287 0.187384 0
    outer loop
      vertex -1.9495 0.24628 1.4
      vertex -1.90326 0.488675 4.34
      vertex -1.90326 0.488675 1.4
    endloop
  endfacet
  facet normal -0.982287 0.187384 0
    outer loop
      vertex -1.90326 0.488675 4.34
      vertex -1.9495 0.24628 1.4
      vertex -1.9495 0.24628 4.34
    endloop
  endfacet
  facet normal 0.684572 -0.728946 0
    outer loop
      vertex 1.25254 -1.51406 1.4
      vertex 1.43242 -1.34513 4.34
      vertex 1.25254 -1.51406 4.34
    endloop
  endfacet
  facet normal 0.684572 -0.728946 0
    outer loop
      vertex 1.43242 -1.34513 4.34
      vertex 1.25254 -1.51406 1.4
      vertex 1.43242 -1.34513 1.4
    endloop
  endfacet
  facet normal -0.844338 0.535811 0
    outer loop
      vertex -1.72194 0.946646 1.4
      vertex -1.58972 1.155 4.34
      vertex -1.58972 1.155 1.4
    endloop
  endfacet
  facet normal -0.844338 0.535811 0
    outer loop
      vertex -1.58972 1.155 4.34
      vertex -1.72194 0.946646 1.4
      vertex -1.72194 0.946646 4.34
    endloop
  endfacet
  facet normal 0.587767 -0.80903 0
    outer loop
      vertex 1.0529 -1.6591 1.4
      vertex 1.25254 -1.51406 4.34
      vertex 1.0529 -1.6591 4.34
    endloop
  endfacet
  facet normal 0.587767 -0.80903 0
    outer loop
      vertex 1.25254 -1.51406 4.34
      vertex 1.0529 -1.6591 1.4
      vertex 1.25254 -1.51406 1.4
    endloop
  endfacet
  facet normal -0.368156 -0.929764 0
    outer loop
      vertex -0.836656 -1.77798 1.4
      vertex -0.607218 -1.86883 4.34
      vertex -0.836656 -1.77798 4.34
    endloop
  endfacet
  facet normal -0.368156 -0.929764 -0
    outer loop
      vertex -0.607218 -1.86883 4.34
      vertex -0.836656 -1.77798 1.4
      vertex -0.607218 -1.86883 1.4
    endloop
  endfacet
  facet normal 0.684572 0.728946 -0
    outer loop
      vertex 1.43242 1.34513 1.4
      vertex 1.25254 1.51406 4.34
      vertex 1.43242 1.34513 4.34
    endloop
  endfacet
  facet normal 0.684572 0.728946 0
    outer loop
      vertex 1.25254 1.51406 4.34
      vertex 1.43242 1.34513 1.4
      vertex 1.25254 1.51406 1.4
    endloop
  endfacet
  facet normal -0.770492 0.63745 0
    outer loop
      vertex -1.58972 1.155 1.4
      vertex -1.43242 1.34513 4.34
      vertex -1.43242 1.34513 1.4
    endloop
  endfacet
  facet normal -0.770492 0.63745 0
    outer loop
      vertex -1.43242 1.34513 4.34
      vertex -1.58972 1.155 1.4
      vertex -1.58972 1.155 4.34
    endloop
  endfacet
  facet normal 0.248658 -0.968591 0
    outer loop
      vertex 0.368204 -1.93019 1.4
      vertex 0.607218 -1.86883 4.34
      vertex 0.368204 -1.93019 4.34
    endloop
  endfacet
  facet normal 0.248658 -0.968591 0
    outer loop
      vertex 0.607218 -1.86883 4.34
      vertex 0.368204 -1.93019 1.4
      vertex 0.607218 -1.86883 1.4
    endloop
  endfacet
  facet normal -0.684572 -0.728946 0
    outer loop
      vertex -1.43242 -1.34513 1.4
      vertex -1.25254 -1.51406 4.34
      vertex -1.43242 -1.34513 4.34
    endloop
  endfacet
  facet normal -0.684572 -0.728946 -0
    outer loop
      vertex -1.25254 -1.51406 4.34
      vertex -1.43242 -1.34513 1.4
      vertex -1.25254 -1.51406 1.4
    endloop
  endfacet
  facet normal -0.904825 -0.425784 0
    outer loop
      vertex -1.72194 -0.946646 1.4
      vertex -1.82701 -0.723364 4.34
      vertex -1.82701 -0.723364 1.4
    endloop
  endfacet
  facet normal -0.904825 -0.425784 0
    outer loop
      vertex -1.82701 -0.723364 4.34
      vertex -1.72194 -0.946646 1.4
      vertex -1.72194 -0.946646 4.34
    endloop
  endfacet
  facet normal -0.904825 0.425784 0
    outer loop
      vertex -1.82701 0.723364 1.4
      vertex -1.72194 0.946646 4.34
      vertex -1.72194 0.946646 1.4
    endloop
  endfacet
  facet normal -0.904825 0.425784 0
    outer loop
      vertex -1.72194 0.946646 4.34
      vertex -1.82701 0.723364 1.4
      vertex -1.82701 0.723364 4.34
    endloop
  endfacet
endsolid OpenSCAD_Model
